<svg xmlns="http://www.w3.org/2000/svg" viewBox="0 0 512 512">
  <defs>
    <linearGradient id="bgGrad" x1="0%" y1="0%" x2="100%" y2="100%">
      <stop offset="0%" style="stop-color:#1a1a1a"/>
      <stop offset="100%" style="stop-color:#0d0d0d"/>
    </linearGradient>
    <linearGradient id="iconGrad" x1="0%" y1="0%" x2="100%" y2="100%">
      <stop offset="0%" style="stop-color:#e6c86e"/>
      <stop offset="50%" style="stop-color:#d4af37"/>
      <stop offset="100%" style="stop-color:#b8943d"/>
    </linearGradient>
  </defs>

  <!-- Background with rounded corners -->
  <rect width="512" height="512" rx="100" ry="100" fill="url(#bgGrad)"/>

  <!-- Subtle border -->
  <rect width="512" height="512" rx="100" ry="100" fill="none" stroke="#d4af37" stroke-width="4" stroke-opacity="0.3"/>

  <!-- Cards icon scaled and centered -->
  <g transform="translate(72, 72) scale(15.33)">
    <path fill="url(#iconGrad)" d="M3 4V22C3 23.1 3.9 24 5 24H17V22H5V4H3M19 0H9C7.9 0 7 .9 7 2V18C7 19.1 7.9 20 9 20H19C20.1 20 21 19.1 21 18V2C21 .9 20.1 0 19 0M15.8 13C15.4 13 15 12.9 14.6 12.7L15.5 15H12.5L13.4 12.7C13 12.9 12.6 13 12.2 13C11 13 10 12 10 10.8C10 9.3 11.4 8.1 13.4 6.2L14 5.7L14.6 6.2C16.6 8.1 18 9.3 18 10.8C18 12.1 17 13 15.8 13Z"/>
  </g>
</svg>
